<svg xmlns="http://www.w3.org/2000/svg" viewBox="0 0 40.82 25.51"><defs><style>.a{fill:#008dd0;}.b{fill:#fff;}</style></defs><title>SL line 11</title><path class="a" d="M37.5,25.51H3.32A3.32,3.32,0,0,1,0,22.2V3.32A3.32,3.32,0,0,1,3.32,0H37.5a3.32,3.32,0,0,1,3.32,3.32V22.2a3.32,3.32,0,0,1-3.32,3.32"/><polygon class="b" points="11.85 20.09 11.85 17.86 14.64 17.86 14.64 7.88 11.54 9.95 11.54 7.34 14.73 4.9 17.44 4.9 17.44 17.86 19.82 17.86 19.82 20.09 11.85 20.09"/><polygon class="b" points="21.75 20.09 21.75 17.86 24.54 17.86 24.54 7.88 21.43 9.95 21.43 7.34 24.62 4.9 27.33 4.9 27.33 17.86 29.71 17.86 29.71 20.09 21.75 20.09"/></svg>