<svg xmlns="http://www.w3.org/2000/svg" viewBox="0 0 45.04 26.49"><defs><style>.a{fill:#ec619f;}.b{fill:#fff;}</style></defs><title>SL line 41</title><path class="a" d="M32.18,26.49H12.95C6.86,26.49,0,21.65,0,14V12.39C0,4.66,6.86,0,12.95,0H32.18C38.27,0,45,4.66,45,12.39V14c-.09,7.64-6.77,12.48-12.86,12.48"/><path class="b" d="M21.07,5.11v9.76h1.76v2.3H21.07v3.72h-2.9V17.16H11.39V14.65L17,5.11Zm-7.16,9.76h4.26V7.62Z"/><polygon class="b" points="30.09 5.11 30.09 18.56 32.57 18.56 32.57 20.88 24.29 20.88 24.29 18.56 27.19 18.56 27.19 8.2 23.97 10.35 23.97 7.64 27.28 5.11 30.09 5.11"/></svg>